# xmcd
#
# Track frame offsets: 
#        150
#        17537
#        36802
#        55450
#        86195
#        104632
#        125802
#        143110
#        160502
#        180230
#        201155
#        222602
#        238660
#        256505
#        272575
#        293835
#        316275
#
# Disc length: 4525 seconds
#
# Revision: 4
# Processed by: cddbd v1.5.2PL0 Copyright (c) Steve Scherf et al.
# Submitted via: ExactAudioCopy v0.99pb4
#
DISCID=f611ab11
DTITLE=Various Artist - Hearts Of Gold - The Pop Collection
DYEAR=1991
DGENRE=Pop
TTITLE0=Wilson Phillips - Release Me
TTITLE1=Michael Bolton - How Am I Supposed To Live Without You
TTITLE2=Richard Marx - Should've Known Better
TTITLE3=Paula Abdul - Opposites Attract
TTITLE4=Rod Stewart - Forever Young
TTITLE5=George Michael - Praying For Time
TTITLE6=DNA Featuring Suzanne Vega - Tom's Diner
TTITLE7=Roxette - Dangerous
TTITLE8=Stevie B - Because I Love You (The Postman Song)
TTITLE9=Taylor Dayne - Love Will Lead You Back
TTITLE10=Gloria Estefan - Here We Are
TTITLE11=Paul Young - Oh Girl
TTITLE12=Bangles - Eternal Flame
TTITLE13=Linda Ronstadt And Aaron Neville - Don't Know Much
TTITLE14=Bad English - The Price Of Love
TTITLE15=Sheena Easton - The Lover In Me
TTITLE16=Sinead O'Connor - Nothing Compares 2 U
EXTD=
EXTT0=
EXTT1=
EXTT2=
EXTT3=
EXTT4=
EXTT5=
EXTT6=
EXTT7=
EXTT8=
EXTT9=
EXTT10=
EXTT11=
EXTT12=
EXTT13=
EXTT14=
EXTT15=
EXTT16=
PLAYORDER=
